<svg xmlns="http://www.w3.org/2000/svg" viewBox="0 0 500 200">
  <defs>
    <!-- Single color for both acorn and text -->
    <linearGradient id="uniformColor" x1="0%" y1="0%" x2="100%" y2="0%">
      <stop offset="0%" style="stop-color:#424240;stop-opacity:1" />
      <stop offset="100%" style="stop-color:#424240;stop-opacity:1" />
    </linearGradient>
    
    <!-- Shadow filter -->
    <filter id="shadow" x="-50%" y="-50%" width="200%" height="200%">
      <feDropShadow dx="2" dy="2" stdDeviation="2" flood-color="#00000030"/>
    </filter>
  </defs>
  
  <!-- Background -->
<!--   <rect width="400" height="200" fill="#f5f1e8"/> -->
  
  <!-- Acorn positioned for horizontal alignment -->
  <g transform="translate(50, 60) scale(0.35)">
    <path d="M216,112v16c0,53-88,88-88,112,0-24-88-59-88-112V112" 
          fill="none" 
          stroke="#424240" 
          stroke-linecap="round" 
          stroke-linejoin="round" 
          stroke-width="16"
          filter="url(#shadow)"/>
    <path d="M80,56h96a48,48,0,0,1,48,48v0a8,8,0,0,1-8,8H40a8,8,0,0,1-8-8v0A48,48,0,0,1,80,56Z" 
          fill="none" 
          stroke="#424240" 
          stroke-linecap="round" 
          stroke-linejoin="round" 
          stroke-width="16"
          filter="url(#shadow)"/>
    <path d="M128,56V48a32,32,0,0,1,32-32" 
          fill="none" 
          stroke="#424240" 
          stroke-linecap="round" 
          stroke-linejoin="round" 
          stroke-width="16"
          filter="url(#shadow)"/>
  </g>
  
  <!-- Nutshell text positioned for horizontal alignment -->
  <g transform="translate(150, 70) scale(1)">
    <path d="M 204.541 60.449 L 204.541 62.744 L 183.936 62.744 L 183.936 60.449 Q 187.5 60.449 188.696 59.277 Q 189.893 58.105 189.893 54.004 L 189.893 38.086 Q 189.893 35.107 189.502 32.642 Q 189.111 30.176 187.842 28.735 Q 186.572 27.295 183.887 27.295 Q 181.201 27.295 178.76 29.077 Q 176.318 30.859 174.365 33.008 L 174.365 54.004 Q 174.365 58.008 175.464 59.229 Q 176.563 60.449 180.273 60.449 L 180.273 62.744 L 159.473 62.744 L 159.473 60.449 Q 163.135 60.449 164.209 59.058 Q 165.283 57.666 165.283 54.004 L 165.283 12.354 Q 165.283 9.326 164.722 7.788 Q 164.16 6.25 162.451 6.25 Q 161.572 6.25 160.815 6.445 Q 160.059 6.641 159.18 6.934 L 158.252 4.932 L 171.826 0 L 174.365 0 L 174.365 29.541 Q 177.246 26.025 180.493 23.56 Q 183.74 21.094 188.33 21.094 Q 191.992 21.094 194.141 22.705 Q 196.289 24.316 197.339 26.904 Q 198.389 29.492 198.706 32.495 Q 199.023 35.498 199.023 38.33 L 199.023 54.004 Q 199.023 57.764 200.049 59.106 Q 201.074 60.449 204.541 60.449 Z M 46.533 60.449 L 46.533 62.744 L 25.684 62.744 L 25.684 60.449 Q 29.688 60.449 30.688 59.106 Q 31.689 57.764 31.689 53.418 L 31.689 37.061 Q 31.689 34.57 31.299 32.324 Q 30.908 30.078 29.639 28.687 Q 28.369 27.295 25.781 27.295 Q 23.047 27.295 20.557 28.906 Q 18.066 30.518 16.064 32.666 L 16.064 53.418 Q 16.064 57.52 17.065 58.984 Q 18.066 60.449 22.021 60.449 L 22.021 62.744 L 1.172 62.744 L 1.172 60.449 Q 5.127 60.449 6.03 58.862 Q 6.934 57.275 6.934 53.418 L 6.934 34.863 Q 6.934 31.641 6.396 29.565 Q 5.859 27.49 4.004 27.49 Q 3.271 27.49 2.368 27.686 Q 1.465 27.881 0.732 28.174 L 0 26.025 L 13.672 21.094 L 16.064 21.094 L 16.064 29.248 Q 18.945 26.367 22.29 23.73 Q 25.635 21.094 30.078 21.094 Q 34.473 21.094 36.768 23.389 Q 39.063 25.684 39.917 29.175 Q 40.771 32.666 40.771 36.328 L 40.771 53.418 Q 40.771 57.275 41.748 58.862 Q 42.725 60.449 46.533 60.449 Z M 93.164 56.934 L 93.896 59.082 L 80.273 64.111 L 77.734 64.111 L 77.734 55.664 Q 76.074 57.471 73.901 59.448 Q 71.729 61.426 69.141 62.769 Q 66.553 64.111 63.574 64.111 Q 59.18 64.111 56.885 61.768 Q 54.59 59.424 53.784 55.835 Q 52.979 52.246 52.979 48.535 L 52.979 30.859 Q 52.979 26.953 51.587 25.781 Q 50.195 24.609 46.484 24.609 L 46.484 22.314 L 62.158 22.314 L 62.158 48.926 Q 62.158 52.686 63.379 55.249 Q 64.6 57.813 68.262 57.813 Q 70.801 57.813 73.315 56.055 Q 75.83 54.297 77.734 52.246 L 77.734 30.664 Q 77.734 26.904 76.318 25.757 Q 74.902 24.609 71.387 24.609 L 71.387 22.314 L 86.816 22.314 L 86.816 51.563 Q 86.816 53.613 87.256 55.615 Q 87.695 57.617 89.453 57.617 Q 91.455 57.617 93.164 56.934 Z M 127.93 63.525 L 125.781 63.525 L 125.781 48.34 L 127.93 48.34 Q 128.564 51.514 130.127 54.395 Q 131.689 57.275 134.204 59.082 Q 136.719 60.889 140.137 60.889 Q 142.871 60.889 144.702 59.399 Q 146.533 57.91 146.533 55.322 Q 146.533 52.246 144.434 50.244 Q 142.334 48.242 139.233 46.68 Q 136.133 45.117 133.032 43.359 Q 129.932 41.602 127.832 39.014 Q 125.732 36.426 125.732 32.324 Q 125.732 28.564 127.612 26.074 Q 129.492 23.584 132.471 22.339 Q 135.449 21.094 138.818 21.094 Q 141.553 21.094 143.896 21.875 Q 146.24 22.656 148.438 22.656 Q 149.17 22.656 149.634 22.095 Q 150.098 21.533 150.391 20.898 L 152.393 20.898 L 152.393 35.303 L 150.244 35.303 Q 149.121 30.811 146.387 27.393 Q 143.652 23.975 138.965 23.975 Q 136.475 23.975 134.302 25.073 Q 132.129 26.172 132.129 29.004 Q 132.129 31.689 133.74 33.447 Q 135.352 35.205 137.891 36.548 Q 140.43 37.891 143.262 39.16 Q 146.094 40.43 148.633 42.065 Q 151.172 43.701 152.783 46.094 Q 154.395 48.486 154.395 52.051 Q 154.395 55.762 152.393 58.472 Q 150.391 61.182 147.192 62.646 Q 143.994 64.111 140.527 64.111 Q 138.33 64.111 136.255 63.403 Q 134.18 62.695 132.446 61.987 Q 130.713 61.279 129.492 61.279 Q 129.004 61.279 128.589 62.207 Q 128.174 63.135 127.93 63.525 Z M 241.016 46.924 L 242.773 47.949 Q 242.09 52.1 239.893 55.786 Q 237.695 59.473 234.18 61.792 Q 230.664 64.111 225.977 64.111 Q 220.215 64.111 216.211 61.133 Q 212.207 58.154 210.181 53.296 Q 208.154 48.438 208.154 42.773 Q 208.154 36.719 210.474 31.787 Q 212.793 26.855 217.09 23.975 Q 221.387 21.094 227.197 21.094 Q 234.18 21.094 238.477 25.562 Q 242.773 30.029 242.773 37.988 L 215.723 37.988 Q 215.723 42.139 217.285 46.313 Q 218.848 50.488 222.021 53.271 Q 225.195 56.055 229.98 56.055 Q 234.033 56.055 236.694 53.589 Q 239.355 51.123 241.016 46.924 Z M 270.313 60.449 L 270.313 62.744 L 249.561 62.744 L 249.561 60.449 Q 253.369 60.449 254.321 58.74 Q 255.273 57.031 255.273 53.418 L 255.273 13.184 Q 255.273 10.059 254.688 8.203 Q 254.102 6.348 252.197 6.348 Q 251.465 6.348 250.757 6.519 Q 250.049 6.689 249.316 6.934 L 248.389 4.883 L 261.865 0 L 264.355 0 L 264.355 53.418 Q 264.355 57.471 265.405 58.96 Q 266.455 60.449 270.313 60.449 Z M 297.461 60.449 L 297.461 62.744 L 276.709 62.744 L 276.709 60.449 Q 280.518 60.449 281.47 58.74 Q 282.422 57.031 282.422 53.418 L 282.422 13.184 Q 282.422 10.059 281.836 8.203 Q 281.25 6.348 279.346 6.348 Q 278.613 6.348 277.905 6.519 Q 277.197 6.689 276.465 6.934 L 275.537 4.883 L 289.014 0 L 291.504 0 L 291.504 53.418 Q 291.504 57.471 292.554 58.96 Q 293.604 60.449 297.461 60.449 Z M 118.945 53.955 L 121.045 53.955 Q 120.508 56.152 119.043 58.521 Q 117.578 60.889 115.21 62.5 Q 112.842 64.111 109.619 64.111 Q 104.883 64.111 102.93 60.718 Q 100.977 57.324 100.977 52.393 L 100.977 25.732 L 94.434 25.732 L 94.434 23.975 Q 97.559 22.998 100.171 20.63 Q 102.783 18.262 104.81 15.161 Q 106.836 12.061 108.301 8.936 L 110.156 8.936 L 110.156 22.314 L 120.068 22.314 L 120.068 25.732 L 110.156 25.732 L 110.156 51.123 Q 110.156 53.76 110.938 55.908 Q 111.719 58.057 113.965 58.057 Q 115.771 58.057 116.968 56.934 Q 118.164 55.811 118.945 53.955 Z M 215.723 35.01 L 232.666 35.01 Q 232.666 32.617 231.836 30.225 Q 231.006 27.832 229.199 26.245 Q 227.393 24.658 224.463 24.658 Q 220.605 24.658 218.262 27.734 Q 215.918 30.811 215.723 35.01 Z" 
          fill="#424240"
          filter="url(#shadow)"/>
  </g>
</svg>